<mxfile host="app.diagrams.net" modified="2024-01-22T05:30:08.966Z" agent="Mozilla/5.0 (Windows NT 10.0; Win64; x64) AppleWebKit/537.36 (KHTML, like Gecko) Chrome/120.0.0.0 Safari/537.36 Edg/120.0.0.0" etag="7pYjDeoEayYK4x4zMrd1" version="22.1.21" type="github">
  <diagram name="Page-1" id="7TwHKo3Wtn2UYb7ipzLI">
    <mxGraphModel dx="983" dy="518" grid="1" gridSize="10" guides="1" tooltips="1" connect="1" arrows="1" fold="1" page="1" pageScale="1" pageWidth="850" pageHeight="1100" math="0" shadow="0">
      <root>
        <mxCell id="0" />
        <mxCell id="1" parent="0" />
        <mxCell id="dVL5zTnpcCtRwUnk9Osz-60" value="Jenkins" style="rounded=1;whiteSpace=wrap;html=1;verticalAlign=top;" vertex="1" parent="1">
          <mxGeometry x="314" y="132.5" width="130" height="480" as="geometry" />
        </mxCell>
        <mxCell id="dVL5zTnpcCtRwUnk9Osz-5" value="Byze" style="rounded=1;whiteSpace=wrap;html=1;verticalAlign=top;" vertex="1" parent="1">
          <mxGeometry x="110" y="130" width="130" height="480" as="geometry" />
        </mxCell>
        <mxCell id="dVL5zTnpcCtRwUnk9Osz-39" style="edgeStyle=orthogonalEdgeStyle;rounded=0;orthogonalLoop=1;jettySize=auto;html=1;entryX=0;entryY=0.5;entryDx=0;entryDy=0;" edge="1" parent="1" source="dVL5zTnpcCtRwUnk9Osz-37" target="dVL5zTnpcCtRwUnk9Osz-38">
          <mxGeometry relative="1" as="geometry" />
        </mxCell>
        <mxCell id="dVL5zTnpcCtRwUnk9Osz-37" value="caps-v" style="rounded=0;whiteSpace=wrap;html=1;dashed=1;verticalAlign=top;" vertex="1" parent="1">
          <mxGeometry x="125" y="228" width="100" height="125" as="geometry" />
        </mxCell>
        <mxCell id="dVL5zTnpcCtRwUnk9Osz-9" value="snapshot_debug" style="rounded=1;whiteSpace=wrap;html=1;verticalAlign=top;" vertex="1" parent="1">
          <mxGeometry x="323" y="430" width="115" height="169" as="geometry" />
        </mxCell>
        <mxCell id="dVL5zTnpcCtRwUnk9Osz-57" style="edgeStyle=orthogonalEdgeStyle;rounded=0;orthogonalLoop=1;jettySize=auto;html=1;entryX=1;entryY=0.5;entryDx=0;entryDy=0;" edge="1" parent="1" source="dVL5zTnpcCtRwUnk9Osz-7" target="dVL5zTnpcCtRwUnk9Osz-16">
          <mxGeometry relative="1" as="geometry">
            <Array as="points">
              <mxPoint x="459" y="206" />
              <mxPoint x="459" y="372" />
            </Array>
          </mxGeometry>
        </mxCell>
        <mxCell id="dVL5zTnpcCtRwUnk9Osz-7" value="rotta_download" style="rounded=1;whiteSpace=wrap;html=1;" vertex="1" parent="1">
          <mxGeometry x="327" y="173" width="109" height="65" as="geometry" />
        </mxCell>
        <mxCell id="dVL5zTnpcCtRwUnk9Osz-44" style="edgeStyle=orthogonalEdgeStyle;rounded=0;orthogonalLoop=1;jettySize=auto;html=1;entryX=0.5;entryY=0;entryDx=0;entryDy=0;" edge="1" parent="1" source="dVL5zTnpcCtRwUnk9Osz-16" target="dVL5zTnpcCtRwUnk9Osz-9">
          <mxGeometry relative="1" as="geometry" />
        </mxCell>
        <mxCell id="dVL5zTnpcCtRwUnk9Osz-16" value="File" style="rounded=0;whiteSpace=wrap;html=1;" vertex="1" parent="1">
          <mxGeometry x="335" y="360" width="90" height="25" as="geometry" />
        </mxCell>
        <mxCell id="dVL5zTnpcCtRwUnk9Osz-22" style="edgeStyle=orthogonalEdgeStyle;rounded=0;orthogonalLoop=1;jettySize=auto;html=1;entryX=0;entryY=0.5;entryDx=0;entryDy=0;" edge="1" parent="1" source="dVL5zTnpcCtRwUnk9Osz-17" target="dVL5zTnpcCtRwUnk9Osz-7">
          <mxGeometry relative="1" as="geometry" />
        </mxCell>
        <mxCell id="dVL5zTnpcCtRwUnk9Osz-17" value="rotta_path" style="rounded=0;whiteSpace=wrap;html=1;" vertex="1" parent="1">
          <mxGeometry x="130" y="192.5" width="90" height="25" as="geometry" />
        </mxCell>
        <mxCell id="dVL5zTnpcCtRwUnk9Osz-55" style="edgeStyle=orthogonalEdgeStyle;rounded=0;orthogonalLoop=1;jettySize=auto;html=1;entryX=0;entryY=0.5;entryDx=0;entryDy=0;" edge="1" parent="1" source="dVL5zTnpcCtRwUnk9Osz-18" target="dVL5zTnpcCtRwUnk9Osz-48">
          <mxGeometry relative="1" as="geometry" />
        </mxCell>
        <mxCell id="dVL5zTnpcCtRwUnk9Osz-18" value="rnti" style="rounded=0;whiteSpace=wrap;html=1;" vertex="1" parent="1">
          <mxGeometry x="130" y="570" width="90" height="25" as="geometry" />
        </mxCell>
        <mxCell id="dVL5zTnpcCtRwUnk9Osz-53" style="edgeStyle=orthogonalEdgeStyle;rounded=0;orthogonalLoop=1;jettySize=auto;html=1;entryX=0;entryY=0.5;entryDx=0;entryDy=0;" edge="1" parent="1" source="dVL5zTnpcCtRwUnk9Osz-19" target="dVL5zTnpcCtRwUnk9Osz-50">
          <mxGeometry relative="1" as="geometry" />
        </mxCell>
        <mxCell id="dVL5zTnpcCtRwUnk9Osz-19" value="Version" style="rounded=0;whiteSpace=wrap;html=1;" vertex="1" parent="1">
          <mxGeometry x="130" y="501" width="90" height="25" as="geometry" />
        </mxCell>
        <mxCell id="dVL5zTnpcCtRwUnk9Osz-54" style="edgeStyle=orthogonalEdgeStyle;rounded=0;orthogonalLoop=1;jettySize=auto;html=1;entryX=0;entryY=0.5;entryDx=0;entryDy=0;" edge="1" parent="1" source="dVL5zTnpcCtRwUnk9Osz-20" target="dVL5zTnpcCtRwUnk9Osz-50">
          <mxGeometry relative="1" as="geometry" />
        </mxCell>
        <mxCell id="dVL5zTnpcCtRwUnk9Osz-20" value="Pcap_LoHi" style="rounded=0;whiteSpace=wrap;html=1;" vertex="1" parent="1">
          <mxGeometry x="130" y="536" width="90" height="25" as="geometry" />
        </mxCell>
        <mxCell id="dVL5zTnpcCtRwUnk9Osz-25" value="Method" style="swimlane;fontStyle=0;childLayout=stackLayout;horizontal=1;startSize=20;fillColor=none;horizontalStack=0;resizeParent=1;resizeParentMax=0;resizeLast=0;collapsible=1;marginBottom=0;html=1;" vertex="1" parent="1">
          <mxGeometry x="130" y="370" width="90" height="86" as="geometry">
            <mxRectangle x="130" y="370" width="80" height="30" as="alternateBounds" />
          </mxGeometry>
        </mxCell>
        <mxCell id="dVL5zTnpcCtRwUnk9Osz-26" value="1.Download" style="text;strokeColor=none;fillColor=none;align=left;verticalAlign=top;spacingLeft=4;spacingRight=4;overflow=hidden;rotatable=0;points=[[0,0.5],[1,0.5]];portConstraint=eastwest;whiteSpace=wrap;html=1;" vertex="1" parent="dVL5zTnpcCtRwUnk9Osz-25">
          <mxGeometry y="20" width="90" height="20" as="geometry" />
        </mxCell>
        <mxCell id="dVL5zTnpcCtRwUnk9Osz-27" value="2.Extract" style="text;strokeColor=none;fillColor=none;align=left;verticalAlign=top;spacingLeft=4;spacingRight=4;overflow=hidden;rotatable=0;points=[[0,0.5],[1,0.5]];portConstraint=eastwest;whiteSpace=wrap;html=1;" vertex="1" parent="dVL5zTnpcCtRwUnk9Osz-25">
          <mxGeometry y="40" width="90" height="20" as="geometry" />
        </mxCell>
        <mxCell id="dVL5zTnpcCtRwUnk9Osz-28" value="3.Decode" style="text;strokeColor=none;fillColor=none;align=left;verticalAlign=top;spacingLeft=4;spacingRight=4;overflow=hidden;rotatable=0;points=[[0,0.5],[1,0.5]];portConstraint=eastwest;whiteSpace=wrap;html=1;" vertex="1" parent="dVL5zTnpcCtRwUnk9Osz-25">
          <mxGeometry y="60" width="90" height="26" as="geometry" />
        </mxCell>
        <mxCell id="dVL5zTnpcCtRwUnk9Osz-33" value="token" style="rounded=0;whiteSpace=wrap;html=1;" vertex="1" parent="1">
          <mxGeometry x="130" y="253" width="90" height="25" as="geometry" />
        </mxCell>
        <mxCell id="dVL5zTnpcCtRwUnk9Osz-34" value="attach_id" style="rounded=0;whiteSpace=wrap;html=1;" vertex="1" parent="1">
          <mxGeometry x="130" y="286" width="90" height="25" as="geometry" />
        </mxCell>
        <mxCell id="dVL5zTnpcCtRwUnk9Osz-56" style="edgeStyle=orthogonalEdgeStyle;rounded=0;orthogonalLoop=1;jettySize=auto;html=1;entryX=0;entryY=0.5;entryDx=0;entryDy=0;" edge="1" parent="1" source="dVL5zTnpcCtRwUnk9Osz-35" target="dVL5zTnpcCtRwUnk9Osz-16">
          <mxGeometry relative="1" as="geometry" />
        </mxCell>
        <mxCell id="dVL5zTnpcCtRwUnk9Osz-35" value="Zips" style="rounded=0;whiteSpace=wrap;html=1;" vertex="1" parent="1">
          <mxGeometry x="130" y="467" width="90" height="25" as="geometry" />
        </mxCell>
        <mxCell id="dVL5zTnpcCtRwUnk9Osz-36" value="file_names" style="rounded=0;whiteSpace=wrap;html=1;" vertex="1" parent="1">
          <mxGeometry x="130" y="319" width="90" height="25" as="geometry" />
        </mxCell>
        <mxCell id="dVL5zTnpcCtRwUnk9Osz-59" style="edgeStyle=orthogonalEdgeStyle;rounded=0;orthogonalLoop=1;jettySize=auto;html=1;entryX=1;entryY=0.5;entryDx=0;entryDy=0;" edge="1" parent="1" source="dVL5zTnpcCtRwUnk9Osz-38" target="dVL5zTnpcCtRwUnk9Osz-16">
          <mxGeometry relative="1" as="geometry">
            <Array as="points">
              <mxPoint x="459" y="291" />
              <mxPoint x="459" y="372" />
            </Array>
          </mxGeometry>
        </mxCell>
        <mxCell id="dVL5zTnpcCtRwUnk9Osz-38" value="caps-v download" style="rounded=1;whiteSpace=wrap;html=1;" vertex="1" parent="1">
          <mxGeometry x="327" y="259.5" width="109" height="62.5" as="geometry" />
        </mxCell>
        <mxCell id="dVL5zTnpcCtRwUnk9Osz-48" value="rnti_csv" style="rounded=1;whiteSpace=wrap;html=1;" vertex="1" parent="1">
          <mxGeometry x="335" y="573" width="90" height="18" as="geometry" />
        </mxCell>
        <mxCell id="dVL5zTnpcCtRwUnk9Osz-51" style="edgeStyle=orthogonalEdgeStyle;rounded=0;orthogonalLoop=1;jettySize=auto;html=1;" edge="1" parent="1" source="dVL5zTnpcCtRwUnk9Osz-49" target="dVL5zTnpcCtRwUnk9Osz-50">
          <mxGeometry relative="1" as="geometry" />
        </mxCell>
        <mxCell id="dVL5zTnpcCtRwUnk9Osz-49" value="extract" style="rounded=1;whiteSpace=wrap;html=1;" vertex="1" parent="1">
          <mxGeometry x="335" y="470.5" width="90" height="19.5" as="geometry" />
        </mxCell>
        <mxCell id="dVL5zTnpcCtRwUnk9Osz-52" style="edgeStyle=orthogonalEdgeStyle;rounded=0;orthogonalLoop=1;jettySize=auto;html=1;" edge="1" parent="1" source="dVL5zTnpcCtRwUnk9Osz-50" target="dVL5zTnpcCtRwUnk9Osz-48">
          <mxGeometry relative="1" as="geometry" />
        </mxCell>
        <mxCell id="dVL5zTnpcCtRwUnk9Osz-50" value="decode" style="rounded=1;whiteSpace=wrap;html=1;" vertex="1" parent="1">
          <mxGeometry x="335" y="521" width="90" height="18" as="geometry" />
        </mxCell>
      </root>
    </mxGraphModel>
  </diagram>
</mxfile>
